<?xml version="1.0" encoding="utf-8"?>
<!-- Generator: Adobe Illustrator 22.1.0, SVG Export Plug-In . SVG Version: 6.00 Build 0)  -->
<svg version="1.1" id="Layer_1" xmlns="http://www.w3.org/2000/svg" xmlns:xlink="http://www.w3.org/1999/xlink" x="0px" y="0px"
	 viewBox="0 0 881.4 173.9" style="enable-background:new 0 0 881.4 173.9;" xml:space="preserve">
<style type="text/css">
	.st0{fill:#FFFFFF;}
</style>
<title>partner</title>
<g>
	<path class="st0" d="M48.7,25.7c-1.4-3.6-3.4-6.4-6.1-8.6c-2.7-2.2-6.1-3.3-10.3-3.3c-3.8,0-7,0.8-9.4,2.4
		c-2.5,1.6-3.7,4.2-3.7,7.8c0,2.6,1.2,4.8,3.5,6.5c2.3,1.7,5.3,3.4,8.8,4.8c3.5,1.5,7.3,3,11.4,4.5s7.9,3.4,11.4,5.7
		c3.5,2.2,6.4,5,8.8,8.3c2.3,3.3,3.5,7.4,3.5,12.3c0,9.5-2.8,16.6-8.4,21.2c-5.6,4.7-13.5,7-23.8,7c-3.7,0-7.4-0.5-10.9-1.5
		s-6.9-2.5-9.9-4.3s-5.7-4.2-8.1-6.9c-2.3-2.7-4.1-5.7-5.4-9l14.5-6.4c2.1,4.3,4.7,7.8,7.7,10.4c3,2.6,7.1,3.9,12.3,3.9
		c2.2,0,4.2-0.2,6.1-0.6c1.9-0.4,3.5-1.1,4.9-2.1c1.4-1,2.5-2.2,3.3-3.8c0.8-1.6,1.2-3.5,1.2-5.7c0-3-1.2-5.4-3.5-7.4
		c-2.3-2-5.3-3.8-8.8-5.4c-3.5-1.6-7.3-3.2-11.4-4.7c-4.1-1.5-7.9-3.4-11.4-5.5s-6.4-4.8-8.8-7.9c-2.3-3.1-3.5-7-3.5-11.8
		c0-4.1,0.8-7.7,2.4-10.9c1.6-3.2,3.8-5.9,6.5-8.1s5.8-3.8,9.4-5C24.5,0.6,28.3,0,32.3,0C39.7,0,46.2,1.8,52,5.3
		c5.8,3.6,10,8.7,12.7,15.4L48.7,25.7z"/>
	<path class="st0" d="M87.6,93V1.3h17.5v36.6h35.3V1.3H158V93h-17.5V53.6h-35.3V93H87.6z"/>
	<path class="st0" d="M253.3,47.2c0,15.1-3.3,26.7-9.8,34.9c-6.5,8.2-16.1,12.3-28.7,12.3c-12.6,0-22.2-4.1-28.7-12.3
		c-6.5-8.2-9.8-19.8-9.8-34.9s3.3-26.7,9.8-34.9C192.6,4.1,202.2,0,214.8,0c12.6,0,22.2,4.1,28.7,12.3
		C250.1,20.4,253.3,32.1,253.3,47.2z M235.8,47.2c0-10.8-1.7-19-5.1-24.3c-3.4-5.4-8.7-8.1-15.9-8.1c-7.2,0-12.5,2.7-15.9,8.1
		c-3.4,5.4-5.1,13.5-5.1,24.3c-0.2,10.8,1.5,19,4.9,24.3c3.4,5.4,8.8,8.1,16.1,8.1c7.2,0,12.5-2.7,15.9-8.1
		C234.1,66.1,235.8,58,235.8,47.2z"/>
	<path class="st0" d="M271.8,93V1.3h60.8V16h-43.2v21.9h31.4v14.7h-31.4v25.7h44.6V93H271.8z"/>
	<path class="st0" d="M370.7,1.1h21.9L418.6,93h-17.4l-5.1-19.8h-29L361.7,93h-17.4L370.7,1.1z M370.9,58.7h21.4L382,18.8h-0.3
		L370.9,58.7z"/>
	<path class="st0" d="M434.7,93V1.3h17.5v36.6h35.3V1.3h17.5V93h-17.5V53.6h-35.3V93H434.7z"/>
	<path class="st0" d="M600.5,47.2c0,15.1-3.3,26.7-9.8,34.9c-6.5,8.2-16.1,12.3-28.7,12.3s-22.2-4.1-28.7-12.3
		c-6.5-8.2-9.8-19.8-9.8-34.9s3.3-26.7,9.8-34.9S549.4,0,562,0s22.2,4.1,28.7,12.3C597.2,20.4,600.5,32.1,600.5,47.2z M583,47.2
		c0-10.8-1.7-19-5.1-24.3c-3.4-5.4-8.7-8.1-15.9-8.1c-7.2,0-12.5,2.7-15.9,8.1c-3.4,5.4-5.1,13.5-5.1,24.3
		c-0.2,10.8,1.5,19,4.9,24.3c3.4,5.4,8.8,8.1,16.1,8.1c7.2,0,12.5-2.7,15.9-8.1C581.3,66.1,583,58,583,47.2z"/>
	<path class="st0" d="M618.2,93V1.3h17.5v77h39.9V93H618.2z"/>
	<path class="st0" d="M695.1,93V1.3h17.5V93H695.1z"/>
	<path class="st0" d="M785.7,28c-1.3-3.9-3.3-7.1-6-9.5c-2.8-2.5-6.3-3.7-10.6-3.7c-5.8,0-10.4,2.7-13.8,8.1c-3.3,5.4-5,13.5-5,24.3
		c-0.2,21.6,6.2,32.4,19.3,32.4c2,0,3.7-0.2,5.4-0.6c1.7-0.4,3.2-1.1,4.6-2.2c1.4-1,2.8-2.4,4.1-4.1c1.3-1.7,2.6-4,3.9-6.7l16.3,4.3
		c-2.7,8-7,14-12.8,18c-5.8,4-12.9,6-21.4,6c-11.8,0-20.9-4.1-27.3-12.3c-6.4-8.2-9.6-19.8-9.6-34.9s3.2-26.7,9.6-34.9
		S757.8,0,769.6,0c8.8,0,15.8,2,21,5.9c5.2,3.9,8.8,10,11.1,18.2L785.7,28z"/>
	<path class="st0" d="M863.6,25.7c-1.4-3.6-3.4-6.4-6.1-8.6c-2.7-2.2-6.1-3.3-10.3-3.3c-3.8,0-6.9,0.8-9.4,2.4
		c-2.5,1.6-3.7,4.2-3.7,7.8c0,2.6,1.2,4.8,3.5,6.5c2.3,1.7,5.3,3.4,8.8,4.8c3.5,1.5,7.3,3,11.4,4.5s7.9,3.4,11.4,5.7
		c3.5,2.2,6.4,5,8.8,8.3c2.3,3.3,3.5,7.4,3.5,12.3c0,9.5-2.8,16.6-8.4,21.2c-5.6,4.7-13.5,7-23.8,7c-3.7,0-7.4-0.5-10.9-1.5
		c-3.6-1-6.9-2.5-9.9-4.3c-3-1.9-5.7-4.2-8.1-6.9c-2.3-2.7-4.1-5.7-5.4-9l14.5-6.4c2.1,4.3,4.7,7.8,7.7,10.4c3,2.6,7.1,3.9,12.3,3.9
		c2.2,0,4.2-0.2,6.1-0.6c1.9-0.4,3.5-1.1,4.9-2.1c1.4-1,2.5-2.2,3.3-3.8c0.8-1.6,1.2-3.5,1.2-5.7c0-3-1.2-5.4-3.5-7.4
		c-2.3-2-5.3-3.8-8.8-5.4c-3.5-1.6-7.3-3.2-11.4-4.7c-4.1-1.5-7.9-3.4-11.4-5.5c-3.5-2.2-6.4-4.8-8.8-7.9c-2.3-3.1-3.5-7-3.5-11.8
		c0-4.1,0.8-7.7,2.4-10.9c1.6-3.2,3.8-5.9,6.5-8.1s5.8-3.8,9.4-5c3.6-1.1,7.3-1.7,11.3-1.7c7.4,0,13.9,1.8,19.7,5.3
		c5.8,3.6,10,8.7,12.7,15.4L863.6,25.7z"/>
</g>
<g>
	<path class="st0" d="M132.6,136.3h9.8c2,0,3.7,0.2,5.2,0.7c1.5,0.5,2.8,1,3.9,1.8c1.1,0.8,2,1.6,2.7,2.6c0.7,1,1.3,2,1.7,3
		c0.4,1,0.7,2.1,0.9,3.1c0.2,1,0.3,2,0.3,2.9c0,1.8-0.3,3.5-1,5.2c-0.7,1.7-1.6,3.2-2.9,4.5c-1.3,1.3-2.9,2.4-4.8,3.2
		c-1.9,0.8-4.1,1.2-6.6,1.2h-9.1V136.3z M136.4,160.8h4.8c1.6,0,3.1-0.2,4.6-0.7c1.4-0.4,2.7-1.1,3.8-2c1.1-0.9,1.9-2,2.6-3.3
		c0.6-1.3,1-2.8,1-4.6c0-0.9-0.1-2-0.4-3.2c-0.3-1.2-0.8-2.3-1.6-3.4c-0.8-1.1-1.9-2-3.3-2.7c-1.4-0.7-3.3-1.1-5.5-1.1h-5.7V160.8z"
		/>
	<path class="st0" d="M165.5,156.3c0,0.8,0.2,1.6,0.5,2.2c0.4,0.7,0.8,1.2,1.4,1.7c0.6,0.5,1.3,0.8,2,1.1c0.8,0.3,1.6,0.4,2.4,0.4
		c1.1,0,2.1-0.3,2.9-0.8c0.8-0.5,1.6-1.2,2.3-2l2.7,2.1c-2,2.6-4.7,3.8-8.3,3.8c-1.5,0-2.8-0.3-4-0.8c-1.2-0.5-2.2-1.2-3-2.1
		c-0.8-0.9-1.5-1.9-1.9-3.1c-0.4-1.2-0.7-2.5-0.7-3.9c0-1.4,0.2-2.7,0.7-3.9c0.5-1.2,1.2-2.2,2-3.1c0.9-0.9,1.9-1.6,3.1-2.1
		c1.2-0.5,2.5-0.8,3.9-0.8c1.7,0,3.1,0.3,4.2,0.9c1.1,0.6,2.1,1.3,2.8,2.3c0.7,0.9,1.3,2,1.6,3.2c0.3,1.2,0.5,2.4,0.5,3.6v1.3H165.5
		z M176.7,153.4c0-0.8-0.2-1.5-0.4-2.2c-0.2-0.7-0.6-1.2-1-1.7s-1-0.9-1.7-1.1c-0.7-0.3-1.5-0.4-2.4-0.4c-0.9,0-1.7,0.2-2.4,0.5
		s-1.3,0.8-1.8,1.3c-0.5,0.5-0.9,1.1-1.2,1.8c-0.3,0.6-0.4,1.3-0.4,1.9H176.7z"/>
	<path class="st0" d="M196,150.3c-0.4-0.5-0.9-1-1.6-1.3c-0.6-0.4-1.4-0.5-2.3-0.5c-0.8,0-1.6,0.2-2.2,0.5c-0.6,0.4-0.9,0.9-0.9,1.6
		c0,0.6,0.2,1,0.5,1.3c0.4,0.3,0.8,0.6,1.3,0.8c0.5,0.2,1,0.4,1.6,0.5c0.6,0.1,1,0.2,1.4,0.3c0.8,0.2,1.5,0.4,2.2,0.7
		c0.7,0.3,1.3,0.6,1.7,1c0.5,0.4,0.9,0.9,1.1,1.5c0.3,0.6,0.4,1.3,0.4,2.2c0,1.1-0.2,2-0.7,2.7c-0.4,0.7-1,1.4-1.7,1.8
		c-0.7,0.5-1.5,0.8-2.4,1s-1.8,0.3-2.7,0.3c-1.6,0-2.9-0.2-4.1-0.7s-2.2-1.3-3.1-2.6l2.7-2.2c0.6,0.6,1.2,1.1,1.9,1.5
		c0.7,0.4,1.6,0.7,2.6,0.7c0.4,0,0.9,0,1.4-0.1c0.5-0.1,0.9-0.2,1.2-0.4c0.4-0.2,0.6-0.5,0.9-0.7c0.2-0.3,0.3-0.7,0.3-1.1
		c0-0.5-0.2-1-0.5-1.3c-0.3-0.3-0.7-0.6-1.2-0.8s-0.9-0.4-1.5-0.5c-0.5-0.1-1-0.2-1.4-0.3c-0.8-0.2-1.5-0.4-2.2-0.6
		c-0.7-0.2-1.3-0.5-1.8-0.9c-0.5-0.4-1-0.9-1.3-1.5c-0.3-0.6-0.5-1.4-0.5-2.3c0-1,0.2-1.8,0.6-2.6c0.4-0.7,1-1.3,1.6-1.8
		c0.7-0.5,1.4-0.8,2.3-1.1c0.9-0.2,1.7-0.4,2.6-0.4c1.3,0,2.5,0.2,3.6,0.7c1.2,0.5,2.1,1.3,2.8,2.4L196,150.3z"/>
	<path class="st0" d="M204.2,138.9c0-0.7,0.3-1.3,0.8-1.8c0.5-0.5,1.1-0.8,1.8-0.8c0.7,0,1.3,0.3,1.8,0.8c0.5,0.5,0.8,1.1,0.8,1.8
		s-0.3,1.3-0.8,1.8c-0.5,0.5-1.1,0.8-1.8,0.8c-0.7,0-1.3-0.3-1.8-0.8C204.5,140.2,204.2,139.6,204.2,138.9z M205,145.6h3.6v18.8H205
		V145.6z"/>
	<path class="st0" d="M234.2,164.2c0,1.4-0.2,2.7-0.7,3.9c-0.5,1.2-1.2,2.2-2.1,3.1c-0.9,0.9-2,1.5-3.2,2c-1.3,0.5-2.7,0.7-4.2,0.7
		c-1.8,0-3.4-0.3-4.9-0.8c-1.5-0.5-2.9-1.4-4.3-2.6l2.4-3c0.9,1,1.9,1.8,3,2.3c1.1,0.5,2.3,0.8,3.7,0.8c1.3,0,2.4-0.2,3.3-0.6
		c0.9-0.4,1.6-0.9,2.1-1.5s0.9-1.3,1.1-2.1c0.2-0.8,0.3-1.6,0.3-2.4v-2.8h-0.1c-0.7,1.1-1.6,2-2.8,2.5c-1.2,0.5-2.4,0.8-3.7,0.8
		c-1.4,0-2.6-0.2-3.8-0.7c-1.2-0.5-2.2-1.2-3-2c-0.8-0.9-1.5-1.9-2-3.1c-0.5-1.2-0.7-2.4-0.7-3.8c0-1.4,0.2-2.7,0.7-3.9
		c0.4-1.2,1.1-2.2,1.9-3.1c0.8-0.9,1.8-1.6,3-2.1c1.2-0.5,2.5-0.8,3.9-0.8c1.3,0,2.5,0.3,3.7,0.8c1.2,0.6,2.1,1.3,2.8,2.3h0.1v-2.7
		h3.6V164.2z M224.5,148.5c-1,0-1.8,0.2-2.6,0.5c-0.8,0.3-1.4,0.8-1.9,1.3c-0.5,0.6-0.9,1.2-1.2,2.1c-0.3,0.8-0.4,1.7-0.4,2.6
		c0,1.9,0.6,3.4,1.7,4.6s2.6,1.7,4.5,1.7c1.9,0,3.4-0.6,4.5-1.7c1.1-1.1,1.7-2.7,1.7-4.6c0-1-0.1-1.8-0.4-2.6
		c-0.3-0.8-0.7-1.5-1.2-2.1c-0.5-0.6-1.2-1-1.9-1.3C226.3,148.6,225.5,148.5,224.5,148.5z"/>
	<path class="st0" d="M240.8,145.6h3.6v2.9h0.1c0.4-1,1.2-1.8,2.3-2.4c1.1-0.6,2.4-0.9,3.8-0.9c0.9,0,1.8,0.1,2.6,0.4
		c0.8,0.3,1.6,0.7,2.2,1.3c0.6,0.6,1.1,1.3,1.5,2.2c0.4,0.9,0.6,2,0.6,3.2v12.1h-3.6v-11.1c0-0.9-0.1-1.6-0.4-2.2
		c-0.2-0.6-0.6-1.1-0.9-1.5c-0.4-0.4-0.9-0.7-1.4-0.8c-0.5-0.2-1-0.3-1.6-0.3c-0.7,0-1.4,0.1-2.1,0.4c-0.6,0.2-1.2,0.6-1.7,1.1
		c-0.5,0.5-0.8,1.2-1.1,2c-0.3,0.8-0.4,1.7-0.4,2.8v9.7h-3.6V145.6z"/>
	<path class="st0" d="M266.7,156.3c0,0.8,0.2,1.6,0.5,2.2c0.4,0.7,0.8,1.2,1.4,1.7c0.6,0.5,1.3,0.8,2,1.1c0.8,0.3,1.6,0.4,2.4,0.4
		c1.1,0,2.1-0.3,2.9-0.8c0.8-0.5,1.6-1.2,2.3-2l2.7,2.1c-2,2.6-4.7,3.8-8.3,3.8c-1.5,0-2.8-0.3-4-0.8c-1.2-0.5-2.2-1.2-3-2.1
		c-0.8-0.9-1.5-1.9-1.9-3.1c-0.4-1.2-0.7-2.5-0.7-3.9c0-1.4,0.2-2.7,0.7-3.9c0.5-1.2,1.2-2.2,2-3.1c0.9-0.9,1.9-1.6,3.1-2.1
		c1.2-0.5,2.5-0.8,3.9-0.8c1.7,0,3.1,0.3,4.2,0.9c1.1,0.6,2.1,1.3,2.8,2.3c0.7,0.9,1.3,2,1.6,3.2c0.3,1.2,0.5,2.4,0.5,3.6v1.3H266.7
		z M277.9,153.4c0-0.8-0.2-1.5-0.4-2.2c-0.2-0.7-0.6-1.2-1-1.7s-1-0.9-1.7-1.1c-0.7-0.3-1.5-0.4-2.4-0.4c-0.9,0-1.7,0.2-2.4,0.5
		c-0.7,0.3-1.3,0.8-1.8,1.3c-0.5,0.5-0.9,1.1-1.2,1.8c-0.3,0.6-0.4,1.3-0.4,1.9H277.9z"/>
	<path class="st0" d="M287.2,145.6h3.6v2.9h0.1c0.2-0.5,0.6-1,0.9-1.4c0.4-0.4,0.8-0.8,1.3-1.1c0.5-0.3,1-0.5,1.6-0.7
		c0.6-0.2,1.2-0.3,1.7-0.3c0.6,0,1.1,0.1,1.6,0.2l-0.2,3.8c-0.3-0.1-0.6-0.1-0.9-0.2c-0.3-0.1-0.6-0.1-0.9-0.1c-1.7,0-3.1,0.5-4,1.5
		c-0.9,1-1.4,2.5-1.4,4.6v9.4h-3.6V145.6z"/>
	<path class="st0" d="M325.2,150.3c-0.4-0.5-0.9-1-1.6-1.3c-0.6-0.4-1.4-0.5-2.3-0.5c-0.8,0-1.6,0.2-2.2,0.5
		c-0.6,0.4-0.9,0.9-0.9,1.6c0,0.6,0.2,1,0.5,1.3c0.4,0.3,0.8,0.6,1.3,0.8c0.5,0.2,1,0.4,1.6,0.5c0.6,0.1,1,0.2,1.4,0.3
		c0.8,0.2,1.5,0.4,2.2,0.7c0.7,0.3,1.3,0.6,1.7,1c0.5,0.4,0.9,0.9,1.1,1.5s0.4,1.3,0.4,2.2c0,1.1-0.2,2-0.7,2.7
		c-0.4,0.7-1,1.4-1.7,1.8c-0.7,0.5-1.5,0.8-2.4,1c-0.9,0.2-1.8,0.3-2.7,0.3c-1.6,0-2.9-0.2-4.1-0.7c-1.2-0.5-2.2-1.3-3.1-2.6
		l2.7-2.2c0.6,0.6,1.2,1.1,1.9,1.5c0.7,0.4,1.6,0.7,2.6,0.7c0.4,0,0.9,0,1.4-0.1c0.5-0.1,0.9-0.2,1.2-0.4c0.4-0.2,0.6-0.5,0.9-0.7
		c0.2-0.3,0.3-0.7,0.3-1.1c0-0.5-0.2-1-0.5-1.3c-0.3-0.3-0.7-0.6-1.2-0.8c-0.5-0.2-0.9-0.4-1.5-0.5c-0.5-0.1-1-0.2-1.4-0.3
		c-0.8-0.2-1.5-0.4-2.2-0.6s-1.3-0.5-1.8-0.9c-0.5-0.4-1-0.9-1.3-1.5c-0.3-0.6-0.5-1.4-0.5-2.3c0-1,0.2-1.8,0.6-2.6
		c0.4-0.7,1-1.3,1.6-1.8c0.7-0.5,1.4-0.8,2.3-1.1c0.9-0.2,1.7-0.4,2.6-0.4c1.3,0,2.5,0.2,3.6,0.7c1.2,0.5,2.1,1.3,2.8,2.4
		L325.2,150.3z"/>
	<path class="st0" d="M334,134.4h3.6v14h0.1c0.4-1,1.2-1.8,2.3-2.4c1.1-0.6,2.4-0.9,3.8-0.9c0.9,0,1.8,0.1,2.6,0.4
		c0.8,0.3,1.6,0.7,2.2,1.3c0.6,0.6,1.1,1.3,1.5,2.2c0.4,0.9,0.6,2,0.6,3.2v12.1H347v-11.1c0-0.9-0.1-1.6-0.4-2.2
		c-0.2-0.6-0.6-1.1-0.9-1.5c-0.4-0.4-0.9-0.7-1.4-0.8c-0.5-0.2-1-0.3-1.6-0.3c-0.7,0-1.4,0.1-2.1,0.4c-0.6,0.2-1.2,0.6-1.7,1.1
		c-0.5,0.5-0.8,1.2-1.1,2c-0.3,0.8-0.4,1.7-0.4,2.8v9.7H334V134.4z"/>
	<path class="st0" d="M356.3,155c0-1.4,0.3-2.7,0.8-3.8c0.5-1.2,1.2-2.2,2.1-3.1c0.9-0.9,2-1.6,3.2-2.1c1.2-0.5,2.5-0.8,3.9-0.8
		c1.4,0,2.7,0.3,3.9,0.8c1.2,0.5,2.3,1.2,3.2,2.1c0.9,0.9,1.6,1.9,2.1,3.1c0.5,1.2,0.8,2.5,0.8,3.8c0,1.4-0.3,2.7-0.8,3.9
		s-1.2,2.2-2.1,3.1c-0.9,0.9-2,1.6-3.2,2.1c-1.2,0.5-2.5,0.8-3.9,0.8c-1.4,0-2.7-0.3-3.9-0.8c-1.2-0.5-2.3-1.2-3.2-2.1
		c-0.9-0.9-1.6-1.9-2.1-3.1S356.3,156.4,356.3,155z M360.1,155c0,1,0.1,1.8,0.4,2.6c0.3,0.8,0.7,1.5,1.2,2.1c0.5,0.6,1.2,1,1.9,1.3
		c0.8,0.3,1.6,0.5,2.6,0.5c0.9,0,1.8-0.2,2.6-0.5c0.8-0.3,1.4-0.8,1.9-1.3c0.5-0.6,0.9-1.3,1.2-2.1c0.3-0.8,0.4-1.7,0.4-2.6
		s-0.1-1.8-0.4-2.6c-0.3-0.8-0.7-1.5-1.2-2.1c-0.5-0.6-1.2-1-1.9-1.3c-0.8-0.3-1.6-0.5-2.6-0.5c-1,0-1.8,0.2-2.6,0.5
		c-0.8,0.3-1.4,0.8-1.9,1.3c-0.5,0.6-0.9,1.2-1.2,2.1C360.2,153.2,360.1,154,360.1,155z"/>
	<path class="st0" d="M384.6,156.3c0,0.8,0.2,1.6,0.5,2.2c0.4,0.7,0.8,1.2,1.4,1.7c0.6,0.5,1.3,0.8,2,1.1c0.8,0.3,1.6,0.4,2.4,0.4
		c1.1,0,2.1-0.3,2.9-0.8c0.8-0.5,1.6-1.2,2.3-2l2.7,2.1c-2,2.6-4.7,3.8-8.3,3.8c-1.5,0-2.8-0.3-4-0.8c-1.2-0.5-2.2-1.2-3-2.1
		c-0.8-0.9-1.5-1.9-1.9-3.1c-0.4-1.2-0.7-2.5-0.7-3.9c0-1.4,0.2-2.7,0.7-3.9c0.5-1.2,1.2-2.2,2-3.1c0.9-0.9,1.9-1.6,3.1-2.1
		c1.2-0.5,2.5-0.8,3.9-0.8c1.7,0,3.1,0.3,4.2,0.9c1.1,0.6,2.1,1.3,2.8,2.3c0.7,0.9,1.3,2,1.6,3.2c0.3,1.2,0.5,2.4,0.5,3.6v1.3H384.6
		z M395.8,153.4c0-0.8-0.2-1.5-0.4-2.2c-0.2-0.7-0.6-1.2-1-1.7s-1-0.9-1.7-1.1c-0.7-0.3-1.5-0.4-2.4-0.4c-0.9,0-1.7,0.2-2.4,0.5
		c-0.7,0.3-1.3,0.8-1.8,1.3c-0.5,0.5-0.9,1.1-1.2,1.8c-0.3,0.6-0.4,1.3-0.4,1.9H395.8z"/>
	<path class="st0" d="M415,150.3c-0.4-0.5-0.9-1-1.6-1.3c-0.6-0.4-1.4-0.5-2.3-0.5c-0.8,0-1.6,0.2-2.2,0.5c-0.6,0.4-0.9,0.9-0.9,1.6
		c0,0.6,0.2,1,0.5,1.3c0.4,0.3,0.8,0.6,1.3,0.8c0.5,0.2,1,0.4,1.6,0.5c0.6,0.1,1,0.2,1.4,0.3c0.8,0.2,1.5,0.4,2.2,0.7
		c0.7,0.3,1.3,0.6,1.7,1c0.5,0.4,0.9,0.9,1.1,1.5c0.3,0.6,0.4,1.3,0.4,2.2c0,1.1-0.2,2-0.7,2.7c-0.4,0.7-1,1.4-1.7,1.8
		c-0.7,0.5-1.5,0.8-2.4,1c-0.9,0.2-1.8,0.3-2.7,0.3c-1.6,0-2.9-0.2-4.1-0.7c-1.2-0.5-2.2-1.3-3.1-2.6l2.7-2.2
		c0.6,0.6,1.2,1.1,1.9,1.5c0.7,0.4,1.6,0.7,2.6,0.7c0.4,0,0.9,0,1.4-0.1c0.5-0.1,0.9-0.2,1.2-0.4c0.4-0.2,0.6-0.5,0.9-0.7
		c0.2-0.3,0.3-0.7,0.3-1.1c0-0.5-0.2-1-0.5-1.3c-0.3-0.3-0.7-0.6-1.2-0.8c-0.5-0.2-0.9-0.4-1.5-0.5c-0.5-0.1-1-0.2-1.4-0.3
		c-0.8-0.2-1.5-0.4-2.2-0.6c-0.7-0.2-1.3-0.5-1.8-0.9c-0.5-0.4-1-0.9-1.3-1.5c-0.3-0.6-0.5-1.4-0.5-2.3c0-1,0.2-1.8,0.6-2.6
		c0.4-0.7,1-1.3,1.6-1.8c0.7-0.5,1.4-0.8,2.3-1.1c0.9-0.2,1.7-0.4,2.6-0.4c1.3,0,2.5,0.2,3.6,0.7c1.2,0.5,2.1,1.3,2.8,2.4L415,150.3
		z"/>
	<path class="st0" d="M436.1,147.9c1-0.9,2.2-1.6,3.5-2.1c1.3-0.5,2.6-0.7,4-0.7c1.4,0,2.6,0.2,3.5,0.5c1,0.3,1.8,0.8,2.4,1.4
		c0.6,0.6,1.1,1.2,1.4,2c0.3,0.8,0.5,1.5,0.5,2.4v9.6c0,0.7,0,1.3,0,1.8c0,0.5,0.1,1.1,0.1,1.6h-3.2c-0.1-1-0.1-1.9-0.1-2.9h-0.1
		c-0.8,1.2-1.7,2.1-2.8,2.6c-1.1,0.5-2.3,0.8-3.8,0.8c-0.9,0-1.7-0.1-2.5-0.4c-0.8-0.2-1.5-0.6-2.1-1.1c-0.6-0.5-1.1-1.1-1.4-1.8
		c-0.3-0.7-0.5-1.5-0.5-2.4c0-1.2,0.3-2.2,0.8-3c0.5-0.8,1.3-1.5,2.2-2c0.9-0.5,2-0.9,3.3-1.1c1.3-0.2,2.6-0.3,4-0.3h2.6v-0.8
		c0-0.5-0.1-1-0.3-1.4c-0.2-0.5-0.5-0.9-0.8-1.3c-0.4-0.4-0.8-0.7-1.4-0.9c-0.6-0.2-1.2-0.3-2-0.3c-0.7,0-1.3,0.1-1.8,0.2
		c-0.5,0.1-1,0.3-1.4,0.5c-0.4,0.2-0.8,0.4-1.2,0.7c-0.3,0.3-0.7,0.5-1,0.8L436.1,147.9z M446.1,155.3c-0.8,0-1.7,0-2.6,0.1
		c-0.9,0.1-1.7,0.3-2.4,0.5c-0.7,0.3-1.3,0.6-1.8,1.1c-0.5,0.5-0.7,1.1-0.7,1.8c0,1.1,0.4,1.9,1.1,2.3c0.7,0.5,1.7,0.7,2.9,0.7
		c1,0,1.8-0.2,2.5-0.5c0.7-0.3,1.2-0.8,1.7-1.3c0.4-0.5,0.7-1.1,0.9-1.8c0.2-0.6,0.3-1.3,0.3-1.9v-1.2H446.1z"/>
	<path class="st0" d="M457.7,145.6h3.6v2.9h0.1c0.4-1,1.2-1.8,2.3-2.4c1.1-0.6,2.4-0.9,3.8-0.9c0.9,0,1.8,0.1,2.6,0.4
		c0.8,0.3,1.6,0.7,2.2,1.3c0.6,0.6,1.1,1.3,1.5,2.2c0.4,0.9,0.6,2,0.6,3.2v12.1h-3.6v-11.1c0-0.9-0.1-1.6-0.4-2.2
		c-0.2-0.6-0.6-1.1-0.9-1.5c-0.4-0.4-0.9-0.7-1.4-0.8c-0.5-0.2-1-0.3-1.6-0.3c-0.7,0-1.4,0.1-2.1,0.4s-1.2,0.6-1.7,1.1
		c-0.5,0.5-0.8,1.2-1.1,2c-0.3,0.8-0.4,1.7-0.4,2.8v9.7h-3.6V145.6z"/>
	<path class="st0" d="M499.7,164.4h-3.6v-2.7h-0.1c-0.7,1-1.6,1.8-2.8,2.3c-1.2,0.6-2.4,0.8-3.7,0.8c-1.5,0-2.8-0.3-3.9-0.8
		c-1.2-0.5-2.2-1.2-3-2.1c-0.8-0.9-1.5-1.9-1.9-3.1c-0.5-1.2-0.7-2.5-0.7-3.9c0-1.4,0.2-2.7,0.7-3.9c0.4-1.2,1.1-2.2,1.9-3.1
		c0.8-0.9,1.8-1.6,3-2.1c1.2-0.5,2.5-0.8,3.9-0.8c1.3,0,2.6,0.3,3.8,0.9c1.2,0.6,2.1,1.3,2.7,2.3h0.1v-13.8h3.6V164.4z M490,161.5
		c1,0,1.8-0.2,2.6-0.5c0.8-0.3,1.4-0.8,1.9-1.3c0.5-0.6,0.9-1.3,1.2-2.1c0.3-0.8,0.4-1.7,0.4-2.6s-0.1-1.8-0.4-2.6
		c-0.3-0.8-0.7-1.5-1.2-2.1c-0.5-0.6-1.2-1-1.9-1.3c-0.8-0.3-1.6-0.5-2.6-0.5c-1,0-1.8,0.2-2.6,0.5c-0.8,0.3-1.4,0.8-1.9,1.3
		c-0.5,0.6-0.9,1.2-1.2,2.1c-0.3,0.8-0.4,1.7-0.4,2.6s0.1,1.8,0.4,2.6c0.3,0.8,0.7,1.5,1.2,2.1c0.5,0.6,1.2,1,1.9,1.3
		C488.2,161.3,489,161.5,490,161.5z"/>
	<path class="st0" d="M518.5,134.4h3.6v13.8h0.1c0.6-1,1.5-1.7,2.7-2.3c1.2-0.6,2.4-0.9,3.8-0.9c1.5,0,2.8,0.3,3.9,0.8
		c1.2,0.5,2.2,1.2,3,2.1c0.8,0.9,1.5,1.9,1.9,3.1c0.4,1.2,0.7,2.5,0.7,3.9c0,1.4-0.2,2.7-0.7,3.9c-0.5,1.2-1.1,2.2-1.9,3.1
		c-0.8,0.9-1.8,1.6-3,2.1c-1.2,0.5-2.5,0.8-3.9,0.8c-1.3,0-2.5-0.3-3.7-0.8c-1.2-0.6-2.1-1.3-2.8-2.3H522v2.7h-3.6V134.4z
		 M528.2,161.5c0.9,0,1.8-0.2,2.6-0.5c0.8-0.3,1.4-0.8,1.9-1.3c0.5-0.6,0.9-1.3,1.2-2.1c0.3-0.8,0.4-1.7,0.4-2.6s-0.1-1.8-0.4-2.6
		c-0.3-0.8-0.7-1.5-1.2-2.1c-0.5-0.6-1.2-1-1.9-1.3c-0.8-0.3-1.6-0.5-2.6-0.5c-1,0-1.8,0.2-2.6,0.5c-0.8,0.3-1.4,0.8-1.9,1.3
		c-0.5,0.6-0.9,1.2-1.2,2.1c-0.3,0.8-0.4,1.7-0.4,2.6s0.1,1.8,0.4,2.6c0.3,0.8,0.7,1.5,1.2,2.1c0.5,0.6,1.2,1,1.9,1.3
		C526.4,161.3,527.3,161.5,528.2,161.5z"/>
	<path class="st0" d="M543.9,147.9c1-0.9,2.2-1.6,3.5-2.1c1.3-0.5,2.6-0.7,4-0.7c1.4,0,2.6,0.2,3.5,0.5c1,0.3,1.8,0.8,2.4,1.4
		c0.6,0.6,1.1,1.2,1.4,2c0.3,0.8,0.5,1.5,0.5,2.4v9.6c0,0.7,0,1.3,0,1.8c0,0.5,0.1,1.1,0.1,1.6h-3.2c-0.1-1-0.1-1.9-0.1-2.9H556
		c-0.8,1.2-1.7,2.1-2.8,2.6c-1.1,0.5-2.3,0.8-3.8,0.8c-0.9,0-1.7-0.1-2.5-0.4c-0.8-0.2-1.5-0.6-2.1-1.1c-0.6-0.5-1.1-1.1-1.4-1.8
		c-0.3-0.7-0.5-1.5-0.5-2.4c0-1.2,0.3-2.2,0.8-3s1.3-1.5,2.2-2c0.9-0.5,2-0.9,3.3-1.1c1.3-0.2,2.6-0.3,4-0.3h2.6v-0.8
		c0-0.5-0.1-1-0.3-1.4c-0.2-0.5-0.5-0.9-0.8-1.3c-0.4-0.4-0.8-0.7-1.4-0.9c-0.5-0.2-1.2-0.3-2-0.3c-0.7,0-1.3,0.1-1.8,0.2
		c-0.5,0.1-1,0.3-1.4,0.5c-0.4,0.2-0.8,0.4-1.1,0.7s-0.7,0.5-1,0.8L543.9,147.9z M554,155.3c-0.8,0-1.7,0-2.6,0.1
		c-0.9,0.1-1.7,0.3-2.4,0.5c-0.7,0.3-1.3,0.6-1.8,1.1c-0.5,0.5-0.7,1.1-0.7,1.8c0,1.1,0.4,1.9,1.1,2.3s1.7,0.7,2.9,0.7
		c1,0,1.8-0.2,2.5-0.5c0.7-0.3,1.2-0.8,1.7-1.3c0.4-0.5,0.7-1.1,0.9-1.8c0.2-0.6,0.3-1.3,0.3-1.9v-1.2H554z"/>
	<path class="st0" d="M584.4,164.2c0,1.4-0.2,2.7-0.7,3.9c-0.5,1.2-1.2,2.2-2.1,3.1c-0.9,0.9-2,1.5-3.2,2c-1.3,0.5-2.7,0.7-4.2,0.7
		c-1.8,0-3.4-0.3-4.9-0.8c-1.5-0.5-2.9-1.4-4.3-2.6l2.4-3c0.9,1,1.9,1.8,3,2.3c1.1,0.5,2.3,0.8,3.7,0.8c1.3,0,2.4-0.2,3.3-0.6
		c0.9-0.4,1.6-0.9,2.1-1.5c0.5-0.6,0.9-1.3,1.1-2.1c0.2-0.8,0.3-1.6,0.3-2.4v-2.8h-0.1c-0.7,1.1-1.6,2-2.8,2.5
		c-1.2,0.5-2.4,0.8-3.7,0.8c-1.4,0-2.7-0.2-3.8-0.7c-1.2-0.5-2.2-1.2-3-2c-0.8-0.9-1.5-1.9-2-3.1c-0.5-1.2-0.7-2.4-0.7-3.8
		c0-1.4,0.2-2.7,0.7-3.9c0.5-1.2,1.1-2.2,1.9-3.1c0.8-0.9,1.8-1.6,3-2.1c1.2-0.5,2.5-0.8,3.9-0.8c1.3,0,2.5,0.3,3.7,0.8
		c1.2,0.6,2.1,1.3,2.8,2.3h0.1v-2.7h3.6V164.2z M574.6,148.5c-1,0-1.8,0.2-2.6,0.5c-0.8,0.3-1.4,0.8-1.9,1.3
		c-0.5,0.6-0.9,1.2-1.2,2.1c-0.3,0.8-0.4,1.7-0.4,2.6c0,1.9,0.6,3.4,1.7,4.6c1.1,1.1,2.6,1.7,4.5,1.7s3.4-0.6,4.5-1.7
		c1.1-1.1,1.7-2.7,1.7-4.6c0-1-0.1-1.8-0.4-2.6c-0.3-0.8-0.7-1.5-1.2-2.1c-0.5-0.6-1.2-1-1.9-1.3
		C576.4,148.6,575.6,148.5,574.6,148.5z"/>
	<path class="st0" d="M600.9,150.3c-0.4-0.5-0.9-1-1.6-1.3c-0.6-0.4-1.4-0.5-2.3-0.5c-0.9,0-1.6,0.2-2.2,0.5
		c-0.6,0.4-0.9,0.9-0.9,1.6c0,0.6,0.2,1,0.5,1.3c0.4,0.3,0.8,0.6,1.3,0.8c0.5,0.2,1,0.4,1.6,0.5c0.6,0.1,1,0.2,1.4,0.3
		c0.8,0.2,1.5,0.4,2.2,0.7c0.7,0.3,1.3,0.6,1.7,1c0.5,0.4,0.9,0.9,1.1,1.5s0.4,1.3,0.4,2.2c0,1.1-0.2,2-0.7,2.7
		c-0.5,0.7-1,1.4-1.7,1.8c-0.7,0.5-1.5,0.8-2.4,1c-0.9,0.2-1.8,0.3-2.8,0.3c-1.6,0-2.9-0.2-4.1-0.7c-1.2-0.5-2.2-1.3-3.1-2.6
		l2.7-2.2c0.6,0.6,1.2,1.1,1.9,1.5s1.6,0.7,2.6,0.7c0.4,0,0.9,0,1.4-0.1c0.5-0.1,0.9-0.2,1.2-0.4c0.4-0.2,0.6-0.5,0.9-0.7
		c0.2-0.3,0.3-0.7,0.3-1.1c0-0.5-0.2-1-0.5-1.3c-0.3-0.3-0.7-0.6-1.2-0.8s-0.9-0.4-1.5-0.5c-0.5-0.1-1-0.2-1.4-0.3
		c-0.8-0.2-1.5-0.4-2.2-0.6s-1.3-0.5-1.8-0.9c-0.5-0.4-1-0.9-1.3-1.5c-0.3-0.6-0.5-1.4-0.5-2.3c0-1,0.2-1.8,0.6-2.6
		c0.4-0.7,1-1.3,1.6-1.8c0.7-0.5,1.4-0.8,2.3-1.1c0.9-0.2,1.7-0.4,2.6-0.4c1.3,0,2.5,0.2,3.6,0.7c1.2,0.5,2.1,1.3,2.8,2.4
		L600.9,150.3z"/>
	<path class="st0" d="M623.3,148.7h-4v-3.1h4v-4.2c0-2.5,0.5-4.4,1.4-5.6c1-1.2,2.6-1.8,5-1.8c0.4,0,0.8,0,1.2,0
		c0.4,0,0.9,0.1,1.4,0.2l-0.4,3.2c-0.3-0.1-0.7-0.2-1-0.3c-0.3,0-0.7-0.1-1-0.1c-0.7,0-1.2,0.1-1.6,0.3s-0.7,0.5-0.9,0.9
		c-0.2,0.4-0.4,0.8-0.4,1.3c-0.1,0.5-0.1,1.1-0.1,1.8v4.3h4.2v3.1h-4.3v15.7h-3.6V148.7z"/>
	<path class="st0" d="M635.3,155c0-1.4,0.3-2.7,0.8-3.8c0.5-1.2,1.2-2.2,2.1-3.1c0.9-0.9,2-1.6,3.2-2.1c1.2-0.5,2.5-0.8,3.9-0.8
		c1.4,0,2.7,0.3,3.9,0.8c1.2,0.5,2.3,1.2,3.2,2.1c0.9,0.9,1.6,1.9,2.1,3.1c0.5,1.2,0.8,2.5,0.8,3.8c0,1.4-0.3,2.7-0.8,3.9
		s-1.2,2.2-2.1,3.1c-0.9,0.9-2,1.6-3.2,2.1c-1.2,0.5-2.5,0.8-3.9,0.8c-1.4,0-2.7-0.3-3.9-0.8c-1.2-0.5-2.3-1.2-3.2-2.1
		s-1.6-1.9-2.1-3.1C635.6,157.6,635.3,156.4,635.3,155z M639.1,155c0,1,0.1,1.8,0.4,2.6c0.3,0.8,0.7,1.5,1.2,2.1
		c0.5,0.6,1.2,1,1.9,1.3c0.8,0.3,1.6,0.5,2.6,0.5s1.8-0.2,2.6-0.5c0.8-0.3,1.4-0.8,1.9-1.3c0.5-0.6,0.9-1.3,1.2-2.1
		c0.3-0.8,0.4-1.7,0.4-2.6s-0.1-1.8-0.4-2.6c-0.3-0.8-0.7-1.5-1.2-2.1c-0.5-0.6-1.2-1-1.9-1.3c-0.8-0.3-1.6-0.5-2.6-0.5
		s-1.8,0.2-2.6,0.5c-0.8,0.3-1.4,0.8-1.9,1.3c-0.5,0.6-0.9,1.2-1.2,2.1C639.3,153.2,639.1,154,639.1,155z"/>
	<path class="st0" d="M660.9,145.6h3.6v2.9h0.1c0.2-0.5,0.6-1,1-1.4c0.4-0.4,0.8-0.8,1.3-1.1c0.5-0.3,1-0.5,1.6-0.7
		c0.6-0.2,1.2-0.3,1.7-0.3s1.1,0.1,1.6,0.2l-0.2,3.8c-0.3-0.1-0.6-0.1-0.9-0.2c-0.3-0.1-0.6-0.1-0.9-0.1c-1.7,0-3.1,0.5-4,1.5
		c-0.9,1-1.4,2.5-1.4,4.6v9.4h-3.6V145.6z"/>
	<path class="st0" d="M689.2,134.4h3.6v29.9h-3.6V134.4z"/>
	<path class="st0" d="M702.3,156.3c0,0.8,0.2,1.6,0.5,2.2c0.4,0.7,0.8,1.2,1.4,1.7c0.6,0.5,1.2,0.8,2,1.1c0.8,0.3,1.6,0.4,2.4,0.4
		c1.1,0,2.1-0.3,2.9-0.8c0.8-0.5,1.6-1.2,2.3-2l2.7,2.1c-2,2.6-4.7,3.8-8.3,3.8c-1.5,0-2.8-0.3-4-0.8c-1.2-0.5-2.2-1.2-3.1-2.1
		c-0.8-0.9-1.5-1.9-1.9-3.1c-0.5-1.2-0.7-2.5-0.7-3.9c0-1.4,0.2-2.7,0.7-3.9c0.5-1.2,1.2-2.2,2-3.1c0.9-0.9,1.9-1.6,3.1-2.1
		c1.2-0.5,2.5-0.8,3.9-0.8c1.7,0,3.1,0.3,4.2,0.9c1.2,0.6,2.1,1.3,2.8,2.3c0.7,0.9,1.3,2,1.6,3.2c0.3,1.2,0.5,2.4,0.5,3.6v1.3H702.3
		z M713.6,153.4c0-0.8-0.2-1.5-0.4-2.2c-0.2-0.7-0.6-1.2-1-1.7s-1-0.9-1.7-1.1c-0.7-0.3-1.5-0.4-2.4-0.4c-0.9,0-1.7,0.2-2.4,0.5
		c-0.7,0.3-1.3,0.8-1.8,1.3c-0.5,0.5-0.9,1.1-1.2,1.8c-0.3,0.6-0.4,1.3-0.4,1.9H713.6z"/>
	<path class="st0" d="M732.8,150.3c-0.4-0.5-0.9-1-1.6-1.3c-0.6-0.4-1.4-0.5-2.3-0.5c-0.9,0-1.6,0.2-2.2,0.5
		c-0.6,0.4-0.9,0.9-0.9,1.6c0,0.6,0.2,1,0.5,1.3c0.4,0.3,0.8,0.6,1.3,0.8c0.5,0.2,1,0.4,1.6,0.5c0.6,0.1,1,0.2,1.4,0.3
		c0.8,0.2,1.5,0.4,2.2,0.7c0.7,0.3,1.3,0.6,1.7,1c0.5,0.4,0.9,0.9,1.1,1.5c0.3,0.6,0.4,1.3,0.4,2.2c0,1.1-0.2,2-0.7,2.7
		c-0.5,0.7-1,1.4-1.7,1.8c-0.7,0.5-1.5,0.8-2.4,1c-0.9,0.2-1.8,0.3-2.8,0.3c-1.6,0-2.9-0.2-4.1-0.7c-1.2-0.5-2.2-1.3-3.1-2.6
		l2.7-2.2c0.6,0.6,1.2,1.1,1.9,1.5s1.6,0.7,2.6,0.7c0.4,0,0.9,0,1.4-0.1c0.5-0.1,0.9-0.2,1.2-0.4c0.4-0.2,0.6-0.5,0.9-0.7
		c0.2-0.3,0.3-0.7,0.3-1.1c0-0.5-0.2-1-0.5-1.3c-0.3-0.3-0.7-0.6-1.2-0.8s-0.9-0.4-1.5-0.5c-0.5-0.1-1-0.2-1.4-0.3
		c-0.8-0.2-1.5-0.4-2.2-0.6s-1.3-0.5-1.8-0.9s-1-0.9-1.3-1.5c-0.3-0.6-0.5-1.4-0.5-2.3c0-1,0.2-1.8,0.6-2.6c0.4-0.7,1-1.3,1.6-1.8
		c0.7-0.5,1.4-0.8,2.3-1.1c0.9-0.2,1.7-0.4,2.6-0.4c1.3,0,2.5,0.2,3.6,0.7c1.2,0.5,2.1,1.3,2.8,2.4L732.8,150.3z"/>
	<path class="st0" d="M751.6,150.3c-0.4-0.5-1-1-1.6-1.3s-1.4-0.5-2.3-0.5c-0.8,0-1.6,0.2-2.2,0.5c-0.6,0.4-0.9,0.9-0.9,1.6
		c0,0.6,0.2,1,0.5,1.3c0.4,0.3,0.8,0.6,1.3,0.8c0.5,0.2,1,0.4,1.6,0.5c0.6,0.1,1,0.2,1.4,0.3c0.8,0.2,1.5,0.4,2.2,0.7
		c0.7,0.3,1.3,0.6,1.7,1c0.5,0.4,0.9,0.9,1.1,1.5s0.4,1.3,0.4,2.2c0,1.1-0.2,2-0.7,2.7c-0.4,0.7-1,1.4-1.7,1.8
		c-0.7,0.5-1.5,0.8-2.4,1c-0.9,0.2-1.8,0.3-2.7,0.3c-1.6,0-2.9-0.2-4.1-0.7c-1.2-0.5-2.2-1.3-3.1-2.6l2.7-2.2
		c0.6,0.6,1.2,1.1,1.9,1.5c0.7,0.4,1.6,0.7,2.6,0.7c0.5,0,0.9,0,1.4-0.1c0.5-0.1,0.9-0.2,1.2-0.4c0.4-0.2,0.6-0.5,0.9-0.7
		c0.2-0.3,0.3-0.7,0.3-1.1c0-0.5-0.2-1-0.5-1.3c-0.3-0.3-0.7-0.6-1.2-0.8c-0.5-0.2-1-0.4-1.5-0.5c-0.5-0.1-1-0.2-1.4-0.3
		c-0.8-0.2-1.5-0.4-2.2-0.6s-1.3-0.5-1.8-0.9c-0.5-0.4-1-0.9-1.3-1.5s-0.5-1.4-0.5-2.3c0-1,0.2-1.8,0.6-2.6c0.4-0.7,1-1.3,1.6-1.8
		c0.7-0.5,1.4-0.8,2.3-1.1c0.9-0.2,1.7-0.4,2.6-0.4c1.3,0,2.5,0.2,3.6,0.7c1.2,0.5,2.1,1.3,2.8,2.4L751.6,150.3z"/>
</g>
</svg>
